<?xml version="1.0" encoding="utf-8"?>
<!-- Generator: Adobe Illustrator 16.0.3, SVG Export Plug-In . SVG Version: 6.00 Build 0)  -->
<!DOCTYPE svg PUBLIC "-//W3C//DTD SVG 1.1//EN" "http://www.w3.org/Graphics/SVG/1.1/DTD/svg11.dtd">
<svg version="1.1" id="Capa_1" xmlns="http://www.w3.org/2000/svg" xmlns:xlink="http://www.w3.org/1999/xlink" x="0px" y="0px"
	 width="170.08px" height="56.69px" viewBox="0 0 170.08 56.69" enable-background="new 0 0 170.08 56.69" xml:space="preserve">
<path fill="#FFFFFF" d="M39.511,13.953H17.842l-7.06,14.509l6.25,14.109l7.05,0.117h0.004l0.438,0.009h14.171l7.506-14.174
	L39.511,13.953z M24.957,28.655c0-3.644,2.746-6.635,6.276-7.037c3.717,2.926,3.556,9.956,0.15,14.093
	C27.781,35.377,24.957,32.345,24.957,28.655z"/>
<linearGradient id="SVGID_1_" gradientUnits="userSpaceOnUse" x1="10.7827" y1="28.3242" x2="46.2036" y2="28.3242">
	<stop  offset="0.2243" style="stop-color:#2E58A6"/>
	<stop  offset="1" style="stop-color:#0B0146"/>
</linearGradient>
<path fill="url(#SVGID_1_)" d="M39.511,13.953H17.842l-7.06,14.509l6.25,14.109l7.05,0.117h0.004l0.438,0.009h14.171l7.506-14.174
	L39.511,13.953z M24.957,28.655c0-3.644,2.746-6.635,6.276-7.037c3.717,2.926,3.556,9.956,0.15,14.093
	C27.781,35.377,24.957,32.345,24.957,28.655z"/>
<path fill="none" stroke="#000000" stroke-width="3" stroke-miterlimit="10" d="M56.96,0.613"/>
<path fill="none" stroke="#000000" stroke-width="3" stroke-miterlimit="10" d="M170.358,57.312"/>
<linearGradient id="SVGID_2_" gradientUnits="userSpaceOnUse" x1="31.2441" y1="28.6514" x2="39.1426" y2="28.6514">
	<stop  offset="0" style="stop-color:#111183"/>
	<stop  offset="1" style="stop-color:#000000"/>
</linearGradient>
<path fill="url(#SVGID_2_)" d="M39.143,28.651c0,3.914-3.172,7.087-7.087,7.087c-0.11,0-0.224-0.003-0.334-0.007
	c-0.111-0.008-0.216-0.018-0.328-0.024c3.407-4.137,3.569-11.166-0.149-14.092c0.268-0.031,0.535-0.05,0.811-0.05
	C35.971,21.565,39.143,24.737,39.143,28.651z"/>
<line opacity="0.5" fill="none" stroke="#000000" stroke-miterlimit="10" x1="24.957" y1="14.083" x2="17.869" y2="28.65"/>
<line opacity="0.3" fill="none" stroke="#000000" stroke-miterlimit="10" x1="17.869" y1="28.65" x2="10.783" y2="28.461"/>
<polyline opacity="0.4" fill="none" stroke="#000000" stroke-miterlimit="10" points="17.869,28.65 24.087,42.688 24.087,42.688 
	24.146,42.825 "/>
<path fill="#111111" d="M56.543,0v56.69h114.232V0H56.543z M90.939,40.428c0.238,0.261,0.509,0.39,0.809,0.39
	c0.826,0,1.671-1.048,2.526-3.145l0.83,0.447c-1.226,3.478-3.221,5.217-5.974,5.217c-1.127,0-2.026-0.346-2.71-1.035
	c-0.682-0.694-1.022-1.595-1.022-2.714c0-0.546,0.048-1.187,0.133-1.915c-1.554,2.156-2.901,3.638-4.039,4.449
	c-1.139,0.81-2.369,1.215-3.686,1.215c-1.526,0-2.674-0.652-3.438-1.965c-0.617,1.8-0.978,3.777-1.088,5.921
	c-0.114,2.15-0.416,3.565-0.911,4.234c-0.492,0.679-1.167,1.02-2.023,1.02c-0.611,0-1.134-0.226-1.559-0.681
	c-0.428-0.455-0.642-1.013-0.642-1.684c0-0.908,0.572-2.302,1.71-4.181c1.137-1.881,1.876-3.224,2.212-4.027
	c0.338-0.805,0.813-2.234,1.424-4.302l4.36-15.029h5.73l-3.625,12.418c-0.477,1.548-0.714,2.667-0.714,3.368
	c0,0.464,0.146,0.844,0.448,1.149s0.667,0.459,1.104,0.459c1.045,0,2.156-0.734,3.322-2.197c1.17-1.465,2.208-3.76,3.125-6.882
	l2.448-8.316h5.688L91.32,36.377c-0.498,1.715-0.743,2.768-0.743,3.169C90.577,39.873,90.698,40.169,90.939,40.428z M124.102,13.279
	h-18.175v10.504h15.923v3.792h-15.923v15.204h-4.32V9.488h22.495V13.279z M132.521,42.778h-3.862V18.802h3.862V42.778z
	 M132.521,14.235h-3.862V9.488h3.862V14.235z M153.285,42.778l-6.127-8.957l-6.189,8.957h-4.354l8.5-12.293l-7.974-11.684h4.354
	l5.844,8.457l5.844-8.457h4.353l-8.22,11.649l8.281,12.327H153.285z"/>
<line fill="#111111" stroke="#111111" stroke-miterlimit="10" x1="56.96" y1="0.487" x2="0" y2="0.487"/>
<line fill="#111111" stroke="#111111" stroke-miterlimit="10" x1="56.543" y1="56.184" x2="0" y2="56.184"/>
<line fill="#111111" stroke="#111111" stroke-miterlimit="10" x1="0" y1="0.487" x2="0" y2="56.184"/>
</svg>
