<?xml version="1.0" ?><svg data-name="Layer 1" id="Layer_1" viewBox="0 0 32 32" xmlns="http://www.w3.org/2000/svg" xmlns:xlink="http://www.w3.org/1999/xlink"><defs><style>.cls-1{fill:url(#linear-gradient);}.cls-2{fill:url(#linear-gradient-2);}.cls-3{fill:url(#linear-gradient-3);}.cls-4{fill:#1282ff;}</style><linearGradient gradientUnits="userSpaceOnUse" id="linear-gradient" x1="6" x2="6" y1="14" y2="18"><stop offset="0.24" stop-color="#cdeaff"/><stop offset="0.34" stop-color="#c2e4ff"/><stop offset="0.5" stop-color="#a5d5ff"/><stop offset="0.72" stop-color="#76bcff"/><stop offset="0.98" stop-color="#369aff"/><stop offset="1" stop-color="#3197ff"/></linearGradient><linearGradient id="linear-gradient-2" x1="16" x2="16" xlink:href="#linear-gradient"/><linearGradient id="linear-gradient-3" x1="26" x2="26" xlink:href="#linear-gradient"/></defs><title/><circle class="cls-1" cx="6" cy="16" r="2"/><circle class="cls-2" cx="16" cy="16" r="2"/><circle class="cls-3" cx="26" cy="16" r="2"/><path class="cls-4" d="M16,13a3,3,0,1,0,3,3A3,3,0,0,0,16,13Zm0,4.5A1.5,1.5,0,1,1,17.5,16,1.5,1.5,0,0,1,16,17.5Z"/><path class="cls-4" d="M26,13a3,3,0,1,0,3,3A3,3,0,0,0,26,13Zm0,4.5A1.5,1.5,0,1,1,27.5,16,1.5,1.5,0,0,1,26,17.5Z"/><path class="cls-4" d="M6,13a3,3,0,1,0,3,3A3,3,0,0,0,6,13Zm0,4.5A1.5,1.5,0,1,1,7.5,16,1.5,1.5,0,0,1,6,17.5Z"/></svg>