<?xml version="1.0" encoding="utf-8"?>
<!-- Generator: Adobe Illustrator 16.0.3, SVG Export Plug-In . SVG Version: 6.00 Build 0)  -->
<!DOCTYPE svg PUBLIC "-//W3C//DTD SVG 1.1//EN" "http://www.w3.org/Graphics/SVG/1.1/DTD/svg11.dtd">
<svg version="1.1" id="Capa_1" xmlns="http://www.w3.org/2000/svg" xmlns:xlink="http://www.w3.org/1999/xlink" x="0px" y="0px"
	 width="640px" height="480px" viewBox="0 0 640 480" enable-background="new 0 0 640 480" xml:space="preserve">
<g>
	<circle fill="none" stroke="#1E2C90" stroke-width="3" stroke-miterlimit="10" cx="164.204" cy="130.366" r="4.471"/>
	<circle fill="none" stroke="#1E2C90" stroke-width="3" stroke-miterlimit="10" cx="187.204" cy="129.366" r="4.471"/>
	<circle fill="none" stroke="#1E2C90" stroke-width="3" stroke-miterlimit="10" cx="187.204" cy="210.366" r="4.471"/>
	<circle fill="none" stroke="#1E2C90" stroke-width="3" stroke-miterlimit="10" cx="238.204" cy="253.366" r="4.471"/>
	<circle fill="none" stroke="#1E2C90" stroke-width="3" stroke-miterlimit="10" cx="187.204" cy="298.366" r="4.471"/>
	<circle fill="none" stroke="#1E2C90" stroke-width="3" stroke-miterlimit="10" cx="187.204" cy="350.366" r="4.471"/>
	<circle fill="none" stroke="#1E2C90" stroke-width="3" stroke-miterlimit="10" cx="260.204" cy="253.366" r="4.471"/>
	<circle fill="none" stroke="#1E2C90" stroke-width="3" stroke-miterlimit="10" cx="220.204" cy="108.366" r="4.471"/>
	<circle fill="none" stroke="#1E2C90" stroke-width="3" stroke-miterlimit="10" cx="197.204" cy="109.366" r="4.471"/>
	<circle fill="none" stroke="#1E2C90" stroke-width="3" stroke-miterlimit="10" cx="357.204" cy="151.366" r="4.471"/>
	<circle fill="none" stroke="#1E2C90" stroke-width="3" stroke-miterlimit="10" cx="373.204" cy="210.366" r="4.471"/>
	<circle fill="none" stroke="#1E2C90" stroke-width="3" stroke-miterlimit="10" cx="325.204" cy="108.366" r="4.471"/>
	<circle fill="none" stroke="#1E2C90" stroke-width="3" stroke-miterlimit="10" cx="392.204" cy="249.366" r="4.471"/>
	<path fill="none" stroke="#1E2C90" stroke-width="3" stroke-miterlimit="10" d="M458.67,342.37c0,2.47-2,4.47-4.47,4.47
		s-4.47-2-4.47-4.47s2-4.48,4.47-4.48S458.67,339.9,458.67,342.37z"/>
	<circle fill="none" stroke="#1E2C90" stroke-width="3" stroke-miterlimit="10" cx="410.204" cy="264.366" r="4.471"/>
	<circle fill="none" stroke="#1E2C90" stroke-width="3" stroke-miterlimit="10" cx="357.204" cy="107.366" r="4.471"/>
	<circle fill="none" stroke="#1E2C90" stroke-width="3" stroke-miterlimit="10" cx="357.204" cy="130.366" r="4.471"/>
	<circle fill="none" stroke="#1E2C90" stroke-width="3" stroke-miterlimit="10" cx="392.204" cy="210.366" r="4.471"/>
	<circle fill="none" stroke="#1E2C90" stroke-width="3" stroke-miterlimit="10" cx="483.204" cy="161.366" r="4.471"/>
	<circle fill="none" stroke="#1E2C90" stroke-width="3" stroke-miterlimit="10" cx="482.204" cy="180.366" r="4.471"/>
	<circle fill="none" stroke="#1E2C90" stroke-width="3" stroke-miterlimit="10" cx="437.204" cy="311.366" r="4.471"/>
	<circle fill="none" stroke="#1E2C90" stroke-width="3" stroke-miterlimit="10" cx="325.204" cy="372.366" r="4.471"/>
	<circle fill="none" stroke="#1E2C90" stroke-width="3" stroke-miterlimit="10" cx="348.204" cy="372.366" r="4.471"/>
	<circle fill="none" stroke="#1E2C90" stroke-width="3" stroke-miterlimit="10" cx="144.204" cy="281.366" r="4.471"/>
	<circle fill="none" stroke="#1E2C90" stroke-width="3" stroke-miterlimit="10" cx="145.204" cy="335.366" r="4.471"/>
	<circle fill="none" stroke="#1E2C90" stroke-width="3" stroke-miterlimit="10" cx="289.204" cy="193.366" r="4.471"/>
	<circle fill="none" stroke="#1E2C90" stroke-width="3" stroke-miterlimit="10" cx="289.204" cy="175.366" r="4.471"/>
	<circle fill="none" stroke="#1E2C90" stroke-width="3" stroke-miterlimit="10" cx="309.204" cy="279.366" r="4.471"/>
	<circle fill="none" stroke="#1E2C90" stroke-width="3" stroke-miterlimit="10" cx="309.204" cy="296.366" r="4.471"/>
	<circle fill="none" stroke="#1E2C90" stroke-width="3" stroke-miterlimit="10" cx="233.204" cy="372.366" r="4.471"/>
	<circle fill="none" stroke="#1E2C90" stroke-width="3" stroke-miterlimit="10" cx="208.204" cy="372.366" r="4.471"/>
	<circle fill="none" stroke="#1E2C90" stroke-width="3" stroke-miterlimit="10" cx="164.204" cy="350.366" r="4.471"/>
	<line fill="none" stroke="#1E2C90" stroke-width="3" stroke-miterlimit="10" x1="163.5" y1="135" x2="163.5" y2="345"/>
</g>
<path fill="none" stroke="#1E2C90" stroke-width="3" stroke-miterlimit="10" d="M309,300.838c0,39.61-30.052,71.662-69.662,71.662"
	/>
<path fill="none" stroke="#1E2C90" stroke-width="3" stroke-miterlimit="10" d="M289,172c0-35.375-28.625-64-64-64"/>
<path fill="none" stroke="#1E2C90" stroke-width="3" stroke-miterlimit="10" d="M309,275.5c-4.268-31.605-29.619-41.663-49-45"/>
<path fill="none" stroke="#1E2C90" stroke-width="3" stroke-miterlimit="10" d="M289.204,198.692
	c0,16.955-13.72,30.675-30.675,30.675"/>
<line fill="none" stroke="#1E2C90" stroke-width="3" stroke-miterlimit="10" x1="145.5" y1="340" x2="145.5" y2="372"/>
<line fill="none" stroke="#1E2C90" stroke-width="3" stroke-miterlimit="10" x1="145" y1="372.5" x2="202" y2="372.5"/>
<line fill="none" stroke="#1E2C90" stroke-width="3" stroke-miterlimit="10" x1="144.5" y1="109" x2="144.5" y2="277"/>
<line fill="none" stroke="#1E2C90" stroke-width="3" stroke-miterlimit="10" x1="144" y1="109.5" x2="193" y2="109.5"/>
<path fill="none" stroke="#1E2C90" stroke-width="3" stroke-miterlimit="10" d="M262,170.691c0-42.74-27.585-41.325-70.325-41.325"
	/>
<path fill="none" stroke="#1E2C90" stroke-width="3" stroke-miterlimit="10" d="M262,169.361c0,42.74-27.585,41.325-70.325,41.325"
	/>
<path fill="none" stroke="#1E2C90" stroke-width="3" stroke-miterlimit="10" d="M263.675,255.366
	c45.528,28.472,14.131,105.569-72,95"/>
<line fill="none" stroke="#1E2C90" stroke-width="3" stroke-miterlimit="10" x1="234" y1="253.5" x2="187" y2="253.5"/>
<line fill="none" stroke="#1E2C90" stroke-width="3" stroke-miterlimit="10" x1="186.5" y1="252" x2="186.5" y2="294"/>
<line fill="none" stroke="#1E2C90" stroke-width="3" stroke-miterlimit="10" x1="325.5" y1="113" x2="325.5" y2="368"/>
<line fill="none" stroke="#1E2C90" stroke-width="3" stroke-miterlimit="10" x1="513.203" y1="371.895" x2="440.779" y2="240.5"/>
<line fill="none" stroke="#1E2C90" stroke-width="3" stroke-miterlimit="10" x1="471.15" y1="372" x2="455" y2="346"/>
<line fill="none" stroke="#1E2C90" stroke-width="3" stroke-miterlimit="10" x1="435.15" y1="306" x2="413" y2="269"/>
<line fill="none" stroke="#1E2C90" stroke-width="3" stroke-miterlimit="10" x1="470" y1="372.5" x2="514" y2="372.5"/>
<path fill="none" stroke="#1E2C90" stroke-width="3" stroke-miterlimit="10" d="M482.441,183.837
	c0,33.529-5.45,45.529-41.662,56.663"/>
<path fill="none" stroke="#1E2C90" stroke-width="3" stroke-linecap="round" stroke-linejoin="round" stroke-miterlimit="10" d="
	M432.278,106.337c30.797,0.514,50.663,10.799,50.663,49.662"/>
<path fill="none" stroke="#1E2C90" stroke-width="3" stroke-linecap="round" stroke-linejoin="round" stroke-miterlimit="10" d="
	M453,108.691"/>
<path fill="none" stroke="#1E2C90" stroke-width="3" stroke-miterlimit="10" d="M493.203,156.895"/>
<line fill="none" stroke="#1E2C90" stroke-width="3" stroke-miterlimit="10" x1="353" y1="372.5" x2="364" y2="372.5"/>
<line fill="none" stroke="#1E2C90" stroke-width="3" stroke-miterlimit="10" x1="363.5" y1="373" x2="363.5" y2="248"/>
<line fill="none" stroke="#1E2C90" stroke-width="3" stroke-miterlimit="10" x1="363" y1="248.5" x2="386" y2="248.5"/>
<line fill="none" stroke="#1E2C90" stroke-width="3" stroke-linecap="round" stroke-linejoin="round" stroke-miterlimit="10" x1="361.675" y1="107.366" x2="435.278" y2="106.337"/>
<path fill="none" stroke="#1E2C90" stroke-width="3" stroke-miterlimit="10" d="M455.675,181.366c0,16.029-15.971,29-32,29"/>
<path fill="none" stroke="#1E2C90" stroke-width="3" stroke-linecap="round" stroke-linejoin="round" stroke-miterlimit="10" d="
	M421.674,130.366c16.031,0,34.001,6.634,34,39"/>
<line fill="none" stroke="#1E2C90" stroke-width="3" stroke-linecap="round" stroke-linejoin="round" stroke-miterlimit="10" x1="363" y1="130.5" x2="424" y2="130.5"/>
<line fill="none" stroke="#1E2C90" stroke-width="3" stroke-miterlimit="10" x1="397" y1="210.5" x2="424" y2="210.5"/>
<line fill="none" stroke="#1E2C90" stroke-width="3" stroke-miterlimit="10" x1="455.5" y1="168" x2="455.5" y2="181"/>
<line fill="none" stroke="#1E2C90" stroke-width="3" stroke-miterlimit="10" x1="356.5" y1="212" x2="356.5" y2="157"/>
<line fill="none" stroke="#1E2C90" stroke-width="3" stroke-miterlimit="10" x1="368" y1="210.5" x2="356" y2="210.5"/>
<line fill="none" stroke="#1E2C90" stroke-width="3" stroke-miterlimit="10" x1="441.675" y1="320" x2="449.73" y2="333.895"/>
</svg>
