<svg id="Capa_1" data-name="Capa 1" xmlns="http://www.w3.org/2000/svg" viewBox="0 0 103.25 18.75"><defs><style>.cls-1{fill:#1f140f;}.cls-2{fill:#8ab7e9;}.cls-3{fill:none;stroke:#8ab7e9;stroke-miterlimit:10;stroke-width:0.4px;}</style></defs><title>Mesa de trabajo 30</title><path class="cls-1" d="M47.72,9.39A3.88,3.88,0,1,0,51.6,5.48a3.91,3.91,0,0,0-3.88,3.91m8.8,0A4.93,4.93,0,1,1,51.6,4.5a4.9,4.9,0,0,1,4.92,4.9"/><path class="cls-2" d="M51.57,1.36a8,8,0,1,0,8,8,8,8,0,0,0-8-8m0,16.41A8.4,8.4,0,1,1,60,9.37a8.4,8.4,0,0,1-8.39,8.4"/><line class="cls-3" x1="59.94" y1="9.38" x2="101.13" y2="9.38"/><line class="cls-3" x1="2.13" y1="9.38" x2="43.25" y2="9.38"/></svg>